<svg width="182" height="154" viewBox="0 0 182 154" fill="none" xmlns="http://www.w3.org/2000/svg">
<path d="M9.2002 1.00977C11.131 1.10563 12.9634 1.9146 14.3369 3.28809C15.802 4.75321 16.625 6.7405 16.625 8.8125V98.9541L57.7852 57.7852C58.5106 57.059 59.3722 56.4829 60.3203 56.0898C61.2687 55.6967 62.2858 55.4951 63.3125 55.4951C64.3392 55.4951 65.3563 55.6967 66.3047 56.0898C67.253 56.483 68.1143 57.0598 68.8398 57.7861L90.5625 79.5166L133.018 37.0625H117.812C115.74 37.0625 113.753 36.2395 112.288 34.7744C110.823 33.3093 110 31.322 110 29.25C110 27.178 110.823 25.1907 112.288 23.7256C113.753 22.2605 115.74 21.4375 117.812 21.4375H151.875C153.947 21.4375 155.934 22.2605 157.399 23.7256C158.865 25.1907 159.688 27.178 159.688 29.25V63.3125C159.688 65.3845 158.865 67.3718 157.399 68.8369C155.934 70.302 153.947 71.125 151.875 71.125C149.803 71.125 147.816 70.302 146.351 68.8369C144.885 67.3718 144.062 65.3845 144.062 63.3125V48.1074L96.0898 96.0898L96.0889 96.0889C95.3635 96.815 94.5028 97.3921 93.5547 97.7852C92.6063 98.1783 91.5892 98.3799 90.5625 98.3799C89.5358 98.3799 88.5187 98.1783 87.5703 97.7852C86.7406 97.4412 85.9774 96.9567 85.3135 96.3545L85.0352 96.0889L63.3115 74.3574L16.625 121.045V137.25H172.312C174.385 137.25 176.372 138.073 177.837 139.538C179.302 141.003 180.125 142.99 180.125 145.062C180.125 147.135 179.302 149.122 177.837 150.587C176.372 152.052 174.385 152.875 172.312 152.875H8.8125C6.7405 152.875 4.75322 152.052 3.28809 150.587C1.82296 149.122 1 147.135 1 145.062V8.8125C1 6.7405 1.82296 4.75321 3.28809 3.28809C4.75321 1.82296 6.7405 1 8.8125 1L9.2002 1.00977Z" fill="#2D4466" stroke="#2D4466" stroke-width="2"/>
</svg>
